<svg xmlns="http://www.w3.org/2000/svg" width="1020" height="1920"><path d="M-163,-161L92,-163L494,-176Z" fill="#e1f4f1" stroke="#e1f4f1" stroke-width="1.51"/><path d="M396,2094L142,2110L745,2106Z" fill="#438765" stroke="#438765" stroke-width="1.51"/><path d="M461,2083L396,2094L745,2106Z" fill="#34825a" stroke="#34825a" stroke-width="1.51"/><path d="M494,-176L778,-156L917,-182Z" fill="#9ed1b1" stroke="#9ed1b1" stroke-width="1.51"/><path d="M876,2085L745,2106L998,2076Z" fill="#106930" stroke="#106930" stroke-width="1.51"/><path d="M998,2076L745,2106L1122,2065Z" fill="#08622b" stroke="#08622b" stroke-width="1.51"/><path d="M1125,1654L1075,1803L1143,1845Z" fill="#04682b" stroke="#04682b" stroke-width="1.51"/><path d="M917,-182L1030,-106L1146,-101Z" fill="#87b490" stroke="#87b490" stroke-width="1.51"/><path d="M1077,888L1122,996L1148,856Z" fill="#3f9065" stroke="#3f9065" stroke-width="1.51"/><path d="M1147,619L1118,733L1148,856Z" fill="#4e946e" stroke="#4e946e" stroke-width="1.51"/><path d="M1014,1308L1064,1427L1158,1250Z" fill="#218448" stroke="#218448" stroke-width="1.51"/><path d="M989,102L991,258L1166,286Z" fill="#79ad89" stroke="#79ad89" stroke-width="1.51"/><path d="M1143,1845L1071,1939L1177,1974Z" fill="#005d25" stroke="#005d25" stroke-width="1.51"/><path d="M1143,1845L1177,1974L1179,1503Z" fill="#046228" stroke="#046228" stroke-width="1.51"/><path d="M1125,1654L1143,1845L1179,1503Z" fill="#0b692e" stroke="#0b692e" stroke-width="1.51"/><path d="M989,102L1166,286L1184,75Z" fill="#78a687" stroke="#78a687" stroke-width="1.51"/><path d="M1146,-101L1111,19L1184,75Z" fill="#7ba387" stroke="#7ba387" stroke-width="1.51"/><path d="M1166,286L1123,396L1190,494Z" fill="#6b9c7d" stroke="#6b9c7d" stroke-width="1.51"/><path d="M1147,619L1148,856L1190,494Z" fill="#539371" stroke="#539371" stroke-width="1.51"/><path d="M1184,75L1166,286L1190,494Z" fill="#6f9c7f" stroke="#6f9c7f" stroke-width="1.51"/><path d="M1122,996L1070,1128L1194,1194Z" fill="#308857" stroke="#308857" stroke-width="1.51"/><path d="M1148,856L1122,996L1194,1194Z" fill="#35875c" stroke="#35875c" stroke-width="1.51"/><path d="M1190,494L1148,856L1194,1194Z" fill="#428a65" stroke="#428a65" stroke-width="1.51"/><path d="M1064,1427L1179,1503L1205,1372Z" fill="#19763c" stroke="#19763c" stroke-width="1.51"/><path d="M1158,1250L1064,1427L1205,1372Z" fill="#1e7c44" stroke="#1e7c44" stroke-width="1.51"/><path d="M1179,1503L1177,1974L1205,1372Z" fill="#0d672f" stroke="#0d672f" stroke-width="1.51"/><path d="M1194,1194L1158,1250L1205,1372Z" fill="#217b47" stroke="#217b47" stroke-width="1.51"/><path d="M1190,494L1194,1194L1205,1372Z" fill="#338259" stroke="#338259" stroke-width="1.51"/><path d="M1012,1541L1125,1654L1179,1503Z" fill="#127434" stroke="#127434" stroke-width="1.51"/><path d="M1111,19L989,102L1184,75Z" fill="#7daa8a" stroke="#7daa8a" stroke-width="1.51"/><path d="M1070,616L1147,619L1190,494Z" fill="#5c9976" stroke="#5c9976" stroke-width="1.51"/><path d="M1010,542L1070,616L1190,494Z" fill="#61a07a" stroke="#61a07a" stroke-width="1.51"/><path d="M1070,1128L1158,1250L1194,1194Z" fill="#298350" stroke="#298350" stroke-width="1.51"/><path d="M1070,-54L1111,19L1146,-101Z" fill="#7fa98b" stroke="#7fa98b" stroke-width="1.51"/><path d="M1123,396L1010,542L1190,494Z" fill="#66a07d" stroke="#66a07d" stroke-width="1.51"/><path d="M1071,1939L1122,2065L1177,1974Z" fill="#005924" stroke="#005924" stroke-width="1.51"/><path d="M1064,1427L1012,1541L1179,1503Z" fill="#177a3b" stroke="#177a3b" stroke-width="1.51"/><path d="M1012,1541L1053,1654L1125,1654Z" fill="#0f7634" stroke="#0f7634" stroke-width="1.51"/><path d="M1053,1654L1075,1803L1125,1654Z" fill="#096f2f" stroke="#096f2f" stroke-width="1.51"/><path d="M1070,616L1118,733L1147,619Z" fill="#569a74" stroke="#569a74" stroke-width="1.51"/><path d="M1118,733L1039,800L1148,856Z" fill="#4a956d" stroke="#4a956d" stroke-width="1.51"/><path d="M995,339L1123,396L1166,286Z" fill="#71a683" stroke="#71a683" stroke-width="1.51"/><path d="M991,258L995,339L1166,286Z" fill="#76ac87" stroke="#76ac87" stroke-width="1.51"/><path d="M1070,1128L1014,1308L1158,1250Z" fill="#278a50" stroke="#278a50" stroke-width="1.51"/><path d="M1075,1803L1071,1939L1143,1845Z" fill="#006529" stroke="#006529" stroke-width="1.51"/><path d="M1039,800L1077,888L1148,856Z" fill="#46956a" stroke="#46956a" stroke-width="1.51"/><path d="M1030,-106L1070,-54L1146,-101Z" fill="#82ad8d" stroke="#82ad8d" stroke-width="1.51"/><path d="M1071,1939L998,2076L1122,2065Z" fill="#005d25" stroke="#005d25" stroke-width="1.51"/><path d="M1077,888L986,1016L1122,996Z" fill="#3b9465" stroke="#3b9465" stroke-width="1.51"/><path d="M986,1016L1070,1128L1122,996Z" fill="#36925f" stroke="#36925f" stroke-width="1.51"/><path d="M995,339L1010,542L1123,396Z" fill="#6eaa83" stroke="#6eaa83" stroke-width="1.51"/><path d="M934,1203L1014,1308L1070,1128Z" fill="#2d9256" stroke="#2d9256" stroke-width="1.51"/><path d="M1070,616L1039,800L1118,733Z" fill="#539c73" stroke="#539c73" stroke-width="1.51"/><path d="M1070,-54L989,102L1111,19Z" fill="#81af8e" stroke="#81af8e" stroke-width="1.51"/><path d="M989,102L932,206L991,258Z" fill="#80b590" stroke="#80b590" stroke-width="1.51"/><path d="M995,339L902,374L1010,542Z" fill="#74b189" stroke="#74b189" stroke-width="1.51"/><path d="M891,649L885,758L1039,800Z" fill="#59a87c" stroke="#59a87c" stroke-width="1.51"/><path d="M897,1635L866,1799L1053,1654Z" fill="#167d39" stroke="#167d39" stroke-width="1.51"/><path d="M891,649L1039,800L1070,616Z" fill="#5aa57a" stroke="#5aa57a" stroke-width="1.51"/><path d="M933,4L989,102L1070,-54Z" fill="#84b592" stroke="#84b592" stroke-width="1.51"/><path d="M891,1929L998,2076L1071,1939Z" fill="#06672c" stroke="#06672c" stroke-width="1.51"/><path d="M1053,1654L866,1799L1075,1803Z" fill="#0c7533" stroke="#0c7533" stroke-width="1.51"/><path d="M891,1929L1071,1939L1075,1803Z" fill="#046c2d" stroke="#046c2d" stroke-width="1.51"/><path d="M866,1799L891,1929L1075,1803Z" fill="#0c7533" stroke="#0c7533" stroke-width="1.51"/><path d="M1039,800L912,863L1077,888Z" fill="#4a9e70" stroke="#4a9e70" stroke-width="1.51"/><path d="M912,863L986,1016L1077,888Z" fill="#449d6d" stroke="#449d6d" stroke-width="1.51"/><path d="M1014,1308L902,1381L1064,1427Z" fill="#248b4a" stroke="#248b4a" stroke-width="1.51"/><path d="M986,1016L947,1026L1070,1128Z" fill="#399762" stroke="#399762" stroke-width="1.51"/><path d="M1030,-106L933,4L1070,-54Z" fill="#85b591" stroke="#85b591" stroke-width="1.51"/><path d="M902,374L936,545L1010,542Z" fill="#6fb087" stroke="#6fb087" stroke-width="1.51"/><path d="M947,1026L934,1203L1070,1128Z" fill="#35965f" stroke="#35965f" stroke-width="1.51"/><path d="M1010,542L891,649L1070,616Z" fill="#62a87f" stroke="#62a87f" stroke-width="1.51"/><path d="M936,545L891,649L1010,542Z" fill="#67ad84" stroke="#67ad84" stroke-width="1.51"/><path d="M902,1381L1012,1541L1064,1427Z" fill="#1f8644" stroke="#1f8644" stroke-width="1.51"/><path d="M1012,1541L897,1635L1053,1654Z" fill="#167d39" stroke="#167d39" stroke-width="1.51"/><path d="M885,758L912,863L1039,800Z" fill="#52a577" stroke="#52a577" stroke-width="1.51"/><path d="M912,863L947,1026L986,1016Z" fill="#429e6d" stroke="#429e6d" stroke-width="1.51"/><path d="M902,1381L884,1569L1012,1541Z" fill="#218844" stroke="#218844" stroke-width="1.51"/><path d="M917,-182L933,4L1030,-106Z" fill="#8ab995" stroke="#8ab995" stroke-width="1.51"/><path d="M933,4L916,92L989,102Z" fill="#86b996" stroke="#86b996" stroke-width="1.51"/><path d="M891,1929L876,2085L998,2076Z" fill="#0c6a2f" stroke="#0c6a2f" stroke-width="1.51"/><path d="M884,1569L897,1635L1012,1541Z" fill="#1d833f" stroke="#1d833f" stroke-width="1.51"/><path d="M934,1203L872,1301L1014,1308Z" fill="#2d9557" stroke="#2d9557" stroke-width="1.51"/><path d="M872,1301L902,1381L1014,1308Z" fill="#2b9252" stroke="#2b9252" stroke-width="1.51"/><path d="M916,92L932,206L989,102Z" fill="#84b894" stroke="#84b894" stroke-width="1.51"/><path d="M991,258L902,374L995,339Z" fill="#7ab48d" stroke="#7ab48d" stroke-width="1.51"/><path d="M932,206L902,374L991,258Z" fill="#7db690" stroke="#7db690" stroke-width="1.51"/><path d="M806,1040L934,1203L947,1026Z" fill="#3e9f67" stroke="#3e9f67" stroke-width="1.51"/><path d="M917,-182L790,-46L933,4Z" fill="#8fc19c" stroke="#8fc19c" stroke-width="1.51"/><path d="M649,2074L461,2083L745,2106Z" fill="#2b7e50" stroke="#2b7e50" stroke-width="1.51"/><path d="M796,1671L866,1799L897,1635Z" fill="#1d8440" stroke="#1d8440" stroke-width="1.51"/><path d="M778,-156L790,-46L917,-182Z" fill="#94c7a3" stroke="#94c7a3" stroke-width="1.51"/><path d="M748,338L902,374L932,206Z" fill="#81bd96" stroke="#81bd96" stroke-width="1.51"/><path d="M738,201L748,338L932,206Z" fill="#88c4a0" stroke="#88c4a0" stroke-width="1.51"/><path d="M806,1040L735,1140L934,1203Z" fill="#40a56d" stroke="#40a56d" stroke-width="1.51"/><path d="M902,374L752,494L936,545Z" fill="#76b88f" stroke="#76b88f" stroke-width="1.51"/><path d="M912,863L806,1040L947,1026Z" fill="#45a471" stroke="#45a471" stroke-width="1.51"/><path d="M723,1511L884,1569L902,1381Z" fill="#2a914e" stroke="#2a914e" stroke-width="1.51"/><path d="M744,903L806,1040L912,863Z" fill="#4eac7c" stroke="#4eac7c" stroke-width="1.51"/><path d="M732,122L738,201L916,92Z" fill="#8ec6a5" stroke="#8ec6a5" stroke-width="1.51"/><path d="M916,92L738,201L932,206Z" fill="#88bf9a" stroke="#88bf9a" stroke-width="1.51"/><path d="M790,-46L916,92L933,4Z" fill="#8cc09b" stroke="#8cc09b" stroke-width="1.51"/><path d="M806,606L891,649L936,545Z" fill="#69b388" stroke="#69b388" stroke-width="1.51"/><path d="M752,494L806,606L936,545Z" fill="#71b990" stroke="#71b990" stroke-width="1.51"/><path d="M817,1924L876,2085L891,1929Z" fill="#137235" stroke="#137235" stroke-width="1.51"/><path d="M811,1297L872,1301L934,1203Z" fill="#329b5c" stroke="#329b5c" stroke-width="1.51"/><path d="M735,1140L811,1297L934,1203Z" fill="#3aa266" stroke="#3aa266" stroke-width="1.51"/><path d="M748,1374L723,1511L902,1381Z" fill="#319a5a" stroke="#319a5a" stroke-width="1.51"/><path d="M866,1799L817,1924L891,1929Z" fill="#157938" stroke="#157938" stroke-width="1.51"/><path d="M885,758L746,803L912,863Z" fill="#58ae7f" stroke="#58ae7f" stroke-width="1.51"/><path d="M790,-46L732,122L916,92Z" fill="#90c6a4" stroke="#90c6a4" stroke-width="1.51"/><path d="M746,803L744,903L912,863Z" fill="#57b183" stroke="#57b183" stroke-width="1.51"/><path d="M779,1828L817,1924L866,1799Z" fill="#1a7f3e" stroke="#1a7f3e" stroke-width="1.51"/><path d="M806,606L885,758L891,649Z" fill="#63b286" stroke="#63b286" stroke-width="1.51"/><path d="M748,338L752,494L902,374Z" fill="#80c19b" stroke="#80c19b" stroke-width="1.51"/><path d="M872,1301L811,1297L902,1381Z" fill="#309858" stroke="#309858" stroke-width="1.51"/><path d="M811,1297L748,1374L902,1381Z" fill="#329b5b" stroke="#329b5b" stroke-width="1.51"/><path d="M817,1924L745,2106L876,2085Z" fill="#177239" stroke="#177239" stroke-width="1.51"/><path d="M884,1569L796,1671L897,1635Z" fill="#208842" stroke="#208842" stroke-width="1.51"/><path d="M806,606L746,803L885,758Z" fill="#63b58a" stroke="#63b58a" stroke-width="1.51"/><path d="M723,1511L796,1671L884,1569Z" fill="#278f4c" stroke="#278f4c" stroke-width="1.51"/><path d="M796,1671L779,1828L866,1799Z" fill="#1e8443" stroke="#1e8443" stroke-width="1.51"/><path d="M92,-163L270,-133L494,-176Z" fill="#cdece6" stroke="#cdece6" stroke-width="1.51"/><path d="M688,1424L723,1511L748,1374Z" fill="#36a062" stroke="#36a062" stroke-width="1.51"/><path d="M494,-176L688,-100L778,-156Z" fill="#a3d7bc" stroke="#a3d7bc" stroke-width="1.51"/><path d="M639,1705L779,1828L796,1671Z" fill="#268d4e" stroke="#268d4e" stroke-width="1.51"/><path d="M744,903L646,1043L806,1040Z" fill="#4fb284" stroke="#4fb284" stroke-width="1.51"/><path d="M664,761L746,803L806,606Z" fill="#68bc94" stroke="#68bc94" stroke-width="1.51"/><path d="M609,639L664,761L806,606Z" fill="#70c39e" stroke="#70c39e" stroke-width="1.51"/><path d="M735,1140L652,1269L811,1297Z" fill="#3faa71" stroke="#3faa71" stroke-width="1.51"/><path d="M649,2074L745,2106L817,1924Z" fill="#1f7943" stroke="#1f7943" stroke-width="1.51"/><path d="M632,1932L649,2074L817,1924Z" fill="#23814a" stroke="#23814a" stroke-width="1.51"/><path d="M779,1828L632,1932L817,1924Z" fill="#218347" stroke="#218347" stroke-width="1.51"/><path d="M597,23L732,122L790,-46Z" fill="#98d0b4" stroke="#98d0b4" stroke-width="1.51"/><path d="M778,-156L688,-100L790,-46Z" fill="#99cdae" stroke="#99cdae" stroke-width="1.51"/><path d="M652,1269L748,1374L811,1297Z" fill="#3ba56a" stroke="#3ba56a" stroke-width="1.51"/><path d="M723,1511L639,1705L796,1671Z" fill="#2d9555" stroke="#2d9555" stroke-width="1.51"/><path d="M646,1043L735,1140L806,1040Z" fill="#4ab07e" stroke="#4ab07e" stroke-width="1.51"/><path d="M752,494L609,639L806,606Z" fill="#76c39f" stroke="#76c39f" stroke-width="1.51"/><path d="M597,23L629,101L732,122Z" fill="#9bd4bb" stroke="#9bd4bb" stroke-width="1.51"/><path d="M639,1705L628,1802L779,1828Z" fill="#2a9054" stroke="#2a9054" stroke-width="1.51"/><path d="M688,-100L597,23L790,-46Z" fill="#9cd3b6" stroke="#9cd3b6" stroke-width="1.51"/><path d="M655,1511L639,1705L723,1511Z" fill="#349c5e" stroke="#349c5e" stroke-width="1.51"/><path d="M748,338L596,401L752,494Z" fill="#87cba9" stroke="#87cba9" stroke-width="1.51"/><path d="M628,1802L632,1932L779,1828Z" fill="#278c51" stroke="#278c51" stroke-width="1.51"/><path d="M618,1132L652,1269L735,1140Z" fill="#49b17e" stroke="#49b17e" stroke-width="1.51"/><path d="M631,868L646,1043L744,903Z" fill="#58ba90" stroke="#58ba90" stroke-width="1.51"/><path d="M631,868L744,903L746,803Z" fill="#5dba91" stroke="#5dba91" stroke-width="1.51"/><path d="M738,201L591,234L748,338Z" fill="#90cfb0" stroke="#90cfb0" stroke-width="1.51"/><path d="M652,1269L688,1424L748,1374Z" fill="#3ca76c" stroke="#3ca76c" stroke-width="1.51"/><path d="M596,401L596,465L752,494Z" fill="#88cdae" stroke="#88cdae" stroke-width="1.51"/><path d="M596,465L609,639L752,494Z" fill="#80caaa" stroke="#80caaa" stroke-width="1.51"/><path d="M664,761L631,868L746,803Z" fill="#64be97" stroke="#64be97" stroke-width="1.51"/><path d="M591,234L596,401L748,338Z" fill="#91d1b4" stroke="#91d1b4" stroke-width="1.51"/><path d="M646,1043L618,1132L735,1140Z" fill="#4eb584" stroke="#4eb584" stroke-width="1.51"/><path d="M732,122L629,101L738,201Z" fill="#95d0b2" stroke="#95d0b2" stroke-width="1.51"/><path d="M552,1639L639,1705L655,1511Z" fill="#399c63" stroke="#399c63" stroke-width="1.51"/><path d="M688,1424L655,1511L723,1511Z" fill="#36a062" stroke="#36a062" stroke-width="1.51"/><path d="M629,101L591,234L738,201Z" fill="#97d2b8" stroke="#97d2b8" stroke-width="1.51"/><path d="M631,868L548,884L646,1043Z" fill="#5fbe99" stroke="#5fbe99" stroke-width="1.51"/><path d="M554,1433L655,1511L688,1424Z" fill="#3ea56c" stroke="#3ea56c" stroke-width="1.51"/><path d="M652,1269L554,1433L688,1424Z" fill="#42a973" stroke="#42a973" stroke-width="1.51"/><path d="M523,-64L597,23L688,-100Z" fill="#a4d8c2" stroke="#a4d8c2" stroke-width="1.51"/><path d="M494,-176L523,-64L688,-100Z" fill="#a9dbc7" stroke="#a9dbc7" stroke-width="1.51"/><path d="M270,-133L387,-137L494,-176Z" fill="#c0e7dd" stroke="#c0e7dd" stroke-width="1.51"/><path d="M596,465L489,587L609,639Z" fill="#85ceb4" stroke="#85ceb4" stroke-width="1.51"/><path d="M548,884L492,1040L646,1043Z" fill="#60be9a" stroke="#60be9a" stroke-width="1.51"/><path d="M632,1932L479,1948L649,2074Z" fill="#318758" stroke="#318758" stroke-width="1.51"/><path d="M618,1132L554,1142L652,1269Z" fill="#4fb586" stroke="#4fb586" stroke-width="1.51"/><path d="M554,1142L522,1240L652,1269Z" fill="#50b587" stroke="#50b587" stroke-width="1.51"/><path d="M522,1240L554,1433L652,1269Z" fill="#4bb17f" stroke="#4bb17f" stroke-width="1.51"/><path d="M537,807L631,868L664,761Z" fill="#6ac2a0" stroke="#6ac2a0" stroke-width="1.51"/><path d="M609,639L537,807L664,761Z" fill="#72c6a6" stroke="#72c6a6" stroke-width="1.51"/><path d="M628,1802L499,1794L632,1932Z" fill="#34925d" stroke="#34925d" stroke-width="1.51"/><path d="M479,1948L461,2083L649,2074Z" fill="#36875d" stroke="#36875d" stroke-width="1.51"/><path d="M554,1433L467,1580L655,1511Z" fill="#44a671" stroke="#44a671" stroke-width="1.51"/><path d="M467,1580L552,1639L655,1511Z" fill="#42a26c" stroke="#42a26c" stroke-width="1.51"/><path d="M591,234L477,338L596,401Z" fill="#99d6c0" stroke="#99d6c0" stroke-width="1.51"/><path d="M499,1794L628,1802L639,1705Z" fill="#369660" stroke="#369660" stroke-width="1.51"/><path d="M554,1142L618,1132L646,1043Z" fill="#54b88c" stroke="#54b88c" stroke-width="1.51"/><path d="M499,1794L479,1948L632,1932Z" fill="#389161" stroke="#389161" stroke-width="1.51"/><path d="M492,1040L554,1142L646,1043Z" fill="#5abb94" stroke="#5abb94" stroke-width="1.51"/><path d="M511,469L489,587L596,465Z" fill="#8dd2bb" stroke="#8dd2bb" stroke-width="1.51"/><path d="M492,95L591,234L629,101Z" fill="#a0d7c4" stroke="#a0d7c4" stroke-width="1.51"/><path d="M552,1639L499,1794L639,1705Z" fill="#3c9a66" stroke="#3c9a66" stroke-width="1.51"/><path d="M537,807L548,884L631,868Z" fill="#6ac3a2" stroke="#6ac3a2" stroke-width="1.51"/><path d="M597,23L492,95L629,101Z" fill="#a3d8c5" stroke="#a3d8c5" stroke-width="1.51"/><path d="M491,241L477,338L591,234Z" fill="#9fd8c6" stroke="#9fd8c6" stroke-width="1.51"/><path d="M492,95L491,241L591,234Z" fill="#a2d9c8" stroke="#a2d9c8" stroke-width="1.51"/><path d="M489,587L537,807L609,639Z" fill="#7ccbb1" stroke="#7ccbb1" stroke-width="1.51"/><path d="M489,587L376,672L537,807Z" fill="#84cfb9" stroke="#84cfb9" stroke-width="1.51"/><path d="M511,469L596,465L596,401Z" fill="#90d2b9" stroke="#90d2b9" stroke-width="1.51"/><path d="M523,-64L492,95L597,23Z" fill="#a8dbcb" stroke="#a8dbcb" stroke-width="1.51"/><path d="M477,338L511,469L596,401Z" fill="#97d5c0" stroke="#97d5c0" stroke-width="1.51"/><path d="M477,338L422,420L511,469Z" fill="#9dd9c7" stroke="#9dd9c7" stroke-width="1.51"/><path d="M376,672L378,773L537,807Z" fill="#84cfb9" stroke="#84cfb9" stroke-width="1.51"/><path d="M393,886L492,1040L548,884Z" fill="#6dc5a9" stroke="#6dc5a9" stroke-width="1.51"/><path d="M419,1689L499,1794L552,1639Z" fill="#459e6e" stroke="#459e6e" stroke-width="1.51"/><path d="M405,1549L467,1580L554,1433Z" fill="#4eaa79" stroke="#4eaa79" stroke-width="1.51"/><path d="M382,1442L405,1549L554,1433Z" fill="#55ae80" stroke="#55ae80" stroke-width="1.51"/><path d="M522,1240L403,1251L554,1433Z" fill="#55b58a" stroke="#55b58a" stroke-width="1.51"/><path d="M403,1251L382,1442L554,1433Z" fill="#59b488" stroke="#59b488" stroke-width="1.51"/><path d="M394,1186L522,1240L554,1142Z" fill="#5cbb94" stroke="#5cbb94" stroke-width="1.51"/><path d="M492,1040L394,1186L554,1142Z" fill="#61bf9a" stroke="#61bf9a" stroke-width="1.51"/><path d="M537,807L393,886L548,884Z" fill="#72c7ac" stroke="#72c7ac" stroke-width="1.51"/><path d="M467,1580L419,1689L552,1639Z" fill="#49a472" stroke="#49a472" stroke-width="1.51"/><path d="M359,29L492,95L523,-64Z" fill="#b1dfd4" stroke="#b1dfd4" stroke-width="1.51"/><path d="M393,886L403,1034L492,1040Z" fill="#71c6aa" stroke="#71c6aa" stroke-width="1.51"/><path d="M407,128L491,241L492,95Z" fill="#abded0" stroke="#abded0" stroke-width="1.51"/><path d="M407,1934L479,1948L499,1794Z" fill="#439569" stroke="#439569" stroke-width="1.51"/><path d="M378,773L393,886L537,807Z" fill="#7eccb4" stroke="#7eccb4" stroke-width="1.51"/><path d="M403,1034L394,1186L492,1040Z" fill="#6bc3a2" stroke="#6bc3a2" stroke-width="1.51"/><path d="M354,483L489,587L511,469Z" fill="#96d6c4" stroke="#96d6c4" stroke-width="1.51"/><path d="M394,1186L403,1251L522,1240Z" fill="#62be96" stroke="#62be96" stroke-width="1.51"/><path d="M387,-137L359,29L523,-64Z" fill="#b8e3d8" stroke="#b8e3d8" stroke-width="1.51"/><path d="M494,-176L387,-137L523,-64Z" fill="#b4e1d4" stroke="#b4e1d4" stroke-width="1.51"/><path d="M422,420L354,483L511,469Z" fill="#9fd9c9" stroke="#9fd9c9" stroke-width="1.51"/><path d="M407,1934L461,2083L479,1948Z" fill="#428f66" stroke="#428f66" stroke-width="1.51"/><path d="M407,128L343,203L491,241Z" fill="#b0e0d5" stroke="#b0e0d5" stroke-width="1.51"/><path d="M359,29L407,128L492,95Z" fill="#b4e1d8" stroke="#b4e1d8" stroke-width="1.51"/><path d="M419,1689L334,1772L499,1794Z" fill="#4fa173" stroke="#4fa173" stroke-width="1.51"/><path d="M334,1772L407,1934L499,1794Z" fill="#4c9c70" stroke="#4c9c70" stroke-width="1.51"/><path d="M407,1934L396,2094L461,2083Z" fill="#458d67" stroke="#458d67" stroke-width="1.51"/><path d="M343,203L477,338L491,241Z" fill="#aaded0" stroke="#aaded0" stroke-width="1.51"/><path d="M354,483L376,672L489,587Z" fill="#96d7c5" stroke="#96d7c5" stroke-width="1.51"/><path d="M405,1549L419,1689L467,1580Z" fill="#52a879" stroke="#52a879" stroke-width="1.51"/><path d="M343,203L262,335L477,338Z" fill="#b3e2d7" stroke="#b3e2d7" stroke-width="1.51"/><path d="M262,335L422,420L477,338Z" fill="#acdfd2" stroke="#acdfd2" stroke-width="1.51"/><path d="M354,483L237,594L376,672Z" fill="#a2dccd" stroke="#a2dccd" stroke-width="1.51"/><path d="M269,-4L359,29L387,-137Z" fill="#c2e8e1" stroke="#c2e8e1" stroke-width="1.51"/><path d="M215,1323L382,1442L403,1251Z" fill="#6cbe97" stroke="#6cbe97" stroke-width="1.51"/><path d="M393,886L221,982L403,1034Z" fill="#7fccb5" stroke="#7fccb5" stroke-width="1.51"/><path d="M278,1108L394,1186L403,1034Z" fill="#74c7a7" stroke="#74c7a7" stroke-width="1.51"/><path d="M220,1548L203,1665L405,1549Z" fill="#6ab287" stroke="#6ab287" stroke-width="1.51"/><path d="M244,1939L396,2094L407,1934Z" fill="#519470" stroke="#519470" stroke-width="1.51"/><path d="M334,1772L244,1939L407,1934Z" fill="#589e76" stroke="#589e76" stroke-width="1.51"/><path d="M405,1549L203,1665L419,1689Z" fill="#5eac80" stroke="#5eac80" stroke-width="1.51"/><path d="M262,335L354,483L422,420Z" fill="#aee0d4" stroke="#aee0d4" stroke-width="1.51"/><path d="M270,-133L269,-4L387,-137Z" fill="#c9eae4" stroke="#c9eae4" stroke-width="1.51"/><path d="M203,1665L334,1772L419,1689Z" fill="#5fa97f" stroke="#5fa97f" stroke-width="1.51"/><path d="M236,536L237,594L354,483Z" fill="#ade0d4" stroke="#ade0d4" stroke-width="1.51"/><path d="M215,1323L248,1450L382,1442Z" fill="#71bd95" stroke="#71bd95" stroke-width="1.51"/><path d="M201,2044L142,2110L396,2094Z" fill="#5d9375" stroke="#5d9375" stroke-width="1.51"/><path d="M244,1939L201,2044L396,2094Z" fill="#5a9674" stroke="#5a9674" stroke-width="1.51"/><path d="M382,1442L248,1450L405,1549Z" fill="#64b48a" stroke="#64b48a" stroke-width="1.51"/><path d="M248,1450L220,1548L405,1549Z" fill="#6bb58b" stroke="#6bb58b" stroke-width="1.51"/><path d="M359,29L277,127L407,128Z" fill="#bde6df" stroke="#bde6df" stroke-width="1.51"/><path d="M277,127L343,203L407,128Z" fill="#bbe5dd" stroke="#bbe5dd" stroke-width="1.51"/><path d="M378,773L211,882L393,886Z" fill="#8ad2be" stroke="#8ad2be" stroke-width="1.51"/><path d="M394,1186L215,1323L403,1251Z" fill="#6fc39e" stroke="#6fc39e" stroke-width="1.51"/><path d="M221,982L278,1108L403,1034Z" fill="#80ccb2" stroke="#80ccb2" stroke-width="1.51"/><path d="M211,882L221,982L393,886Z" fill="#8cd2bd" stroke="#8cd2bd" stroke-width="1.51"/><path d="M278,1108L215,1323L394,1186Z" fill="#78c7a5" stroke="#78c7a5" stroke-width="1.51"/><path d="M376,672L228,743L378,773Z" fill="#95d6c5" stroke="#95d6c5" stroke-width="1.51"/><path d="M228,743L211,882L378,773Z" fill="#97d7c5" stroke="#97d7c5" stroke-width="1.51"/><path d="M237,594L228,743L376,672Z" fill="#a1dbcd" stroke="#a1dbcd" stroke-width="1.51"/><path d="M201,1761L244,1939L334,1772Z" fill="#64a67e" stroke="#64a67e" stroke-width="1.51"/><path d="M206,243L262,335L343,203Z" fill="#c1e8e0" stroke="#c1e8e0" stroke-width="1.51"/><path d="M262,335L236,536L354,483Z" fill="#b3e2d7" stroke="#b3e2d7" stroke-width="1.51"/><path d="M269,-4L277,127L359,29Z" fill="#c5e9e3" stroke="#c5e9e3" stroke-width="1.51"/><path d="M203,1665L201,1761L334,1772Z" fill="#69ac83" stroke="#69ac83" stroke-width="1.51"/><path d="M277,127L206,243L343,203Z" fill="#c3e8e2" stroke="#c3e8e2" stroke-width="1.51"/><path d="M114,1151L134,1312L215,1323Z" fill="#8acdac" stroke="#8acdac" stroke-width="1.51"/><path d="M158,595L228,743L237,594Z" fill="#ade0d4" stroke="#ade0d4" stroke-width="1.51"/><path d="M201,1761L143,1893L244,1939Z" fill="#6ca781" stroke="#6ca781" stroke-width="1.51"/><path d="M115,384L236,536L262,335Z" fill="#c1e8e0" stroke="#c1e8e0" stroke-width="1.51"/><path d="M133,-44L106,162L269,-4Z" fill="#d8f0ee" stroke="#d8f0ee" stroke-width="1.51"/><path d="M133,-44L269,-4L270,-133Z" fill="#d3eeea" stroke="#d3eeea" stroke-width="1.51"/><path d="M269,-4L106,162L277,127Z" fill="#cfede9" stroke="#cfede9" stroke-width="1.51"/><path d="M106,162L206,243L277,127Z" fill="#cfede9" stroke="#cfede9" stroke-width="1.51"/><path d="M114,1151L215,1323L278,1108Z" fill="#87ccae" stroke="#87ccae" stroke-width="1.51"/><path d="M221,982L138,1008L278,1108Z" fill="#8ed1ba" stroke="#8ed1ba" stroke-width="1.51"/><path d="M138,1008L114,1151L278,1108Z" fill="#90d1b8" stroke="#90d1b8" stroke-width="1.51"/><path d="M115,384L97,518L236,536Z" fill="#c3e9e1" stroke="#c3e9e1" stroke-width="1.51"/><path d="M215,1323L136,1436L248,1450Z" fill="#7ec29c" stroke="#7ec29c" stroke-width="1.51"/><path d="M92,-163L133,-44L270,-133Z" fill="#ddf3f0" stroke="#ddf3f0" stroke-width="1.51"/><path d="M151,1577L203,1665L220,1548Z" fill="#76b78e" stroke="#76b78e" stroke-width="1.51"/><path d="M141,755L211,882L228,743Z" fill="#a3dbcc" stroke="#a3dbcc" stroke-width="1.51"/><path d="M206,243L115,384L262,335Z" fill="#c9ebe4" stroke="#c9ebe4" stroke-width="1.51"/><path d="M158,595L141,755L228,743Z" fill="#ade0d3" stroke="#ade0d3" stroke-width="1.51"/><path d="M143,1893L201,2044L244,1939Z" fill="#68a07d" stroke="#68a07d" stroke-width="1.51"/><path d="M136,1436L220,1548L248,1450Z" fill="#7abd95" stroke="#7abd95" stroke-width="1.51"/><path d="M236,536L158,595L237,594Z" fill="#b3e2d7" stroke="#b3e2d7" stroke-width="1.51"/><path d="M100,1798L143,1893L201,1761Z" fill="#74ac86" stroke="#74ac86" stroke-width="1.51"/><path d="M146,1717L201,1761L203,1665Z" fill="#73b088" stroke="#73b088" stroke-width="1.51"/><path d="M211,882L125,908L221,982Z" fill="#99d7c4" stroke="#99d7c4" stroke-width="1.51"/><path d="M134,1312L136,1436L215,1323Z" fill="#85c6a2" stroke="#85c6a2" stroke-width="1.51"/><path d="M97,518L158,595L236,536Z" fill="#bce6dc" stroke="#bce6dc" stroke-width="1.51"/><path d="M74,258L115,384L206,243Z" fill="#d1eee9" stroke="#d1eee9" stroke-width="1.51"/><path d="M136,1436L151,1577L220,1548Z" fill="#7dbc94" stroke="#7dbc94" stroke-width="1.51"/><path d="M125,908L138,1008L221,982Z" fill="#9ad7c4" stroke="#9ad7c4" stroke-width="1.51"/><path d="M141,755L125,908L211,882Z" fill="#a3dbcb" stroke="#a3dbcb" stroke-width="1.51"/><path d="M143,1893L-4,2029L201,2044Z" fill="#70a081" stroke="#70a081" stroke-width="1.51"/><path d="M106,162L74,258L206,243Z" fill="#d4efec" stroke="#d4efec" stroke-width="1.51"/><path d="M-4,2029L142,2110L201,2044Z" fill="#6e9a7e" stroke="#6e9a7e" stroke-width="1.51"/><path d="M151,1577L146,1717L203,1665Z" fill="#78b48d" stroke="#78b48d" stroke-width="1.51"/><path d="M146,1717L100,1798L201,1761Z" fill="#76b089" stroke="#76b089" stroke-width="1.51"/><path d="M-26,31L-13,117L106,162Z" fill="#e1f4f6" stroke="#e1f4f6" stroke-width="1.51"/><path d="M-26,31L106,162L133,-44Z" fill="#dff3f4" stroke="#dff3f4" stroke-width="1.51"/><path d="M114,1151L-20,1258L134,1312Z" fill="#92d0b2" stroke="#92d0b2" stroke-width="1.51"/><path d="M9,770L125,908L141,755Z" fill="#acded1" stroke="#acded1" stroke-width="1.51"/><path d="M-4,2029L-163,2090L142,2110Z" fill="#759c83" stroke="#759c83" stroke-width="1.51"/><path d="M-16,1963L-4,2029L143,1893Z" fill="#76a486" stroke="#76a486" stroke-width="1.51"/><path d="M-13,1699L146,1717L151,1577Z" fill="#7db690" stroke="#7db690" stroke-width="1.51"/><path d="M3,1522L-13,1699L151,1577Z" fill="#84bb95" stroke="#84bb95" stroke-width="1.51"/><path d="M136,1436L3,1522L151,1577Z" fill="#84bf99" stroke="#84bf99" stroke-width="1.51"/><path d="M97,518L-56,605L158,595Z" fill="#c1e8e0" stroke="#c1e8e0" stroke-width="1.51"/><path d="M9,770L141,755L158,595Z" fill="#b3e2d7" stroke="#b3e2d7" stroke-width="1.51"/><path d="M-56,605L9,770L158,595Z" fill="#bce6de" stroke="#bce6de" stroke-width="1.51"/><path d="M134,1312L-54,1367L136,1436Z" fill="#8cc8a7" stroke="#8cc8a7" stroke-width="1.51"/><path d="M-30,1137L114,1151L138,1008Z" fill="#99d5bd" stroke="#99d5bd" stroke-width="1.51"/><path d="M-36,1001L-30,1137L138,1008Z" fill="#a0d7c4" stroke="#a0d7c4" stroke-width="1.51"/><path d="M125,908L38,937L138,1008Z" fill="#9fd9c8" stroke="#9fd9c8" stroke-width="1.51"/><path d="M-2,457L97,518L115,384Z" fill="#ccece6" stroke="#ccece6" stroke-width="1.51"/><path d="M9,770L38,937L125,908Z" fill="#a9ddcf" stroke="#a9ddcf" stroke-width="1.51"/><path d="M-13,1699L100,1798L146,1717Z" fill="#7bb38d" stroke="#7bb38d" stroke-width="1.51"/><path d="M-163,-161L-53,-110L92,-163Z" fill="#edf8fa" stroke="#edf8fa" stroke-width="1.51"/><path d="M100,1798L-16,1963L143,1893Z" fill="#76aa87" stroke="#76aa87" stroke-width="1.51"/><path d="M92,-163L-53,-110L133,-44Z" fill="#e5f6f6" stroke="#e5f6f6" stroke-width="1.51"/><path d="M38,937L-36,1001L138,1008Z" fill="#a1d9c8" stroke="#a1d9c8" stroke-width="1.51"/><path d="M-20,1258L-54,1367L134,1312Z" fill="#92cdae" stroke="#92cdae" stroke-width="1.51"/><path d="M-54,1367L3,1522L136,1436Z" fill="#8cc5a2" stroke="#8cc5a2" stroke-width="1.51"/><path d="M-53,-110L-26,31L133,-44Z" fill="#e6f6f7" stroke="#e6f6f7" stroke-width="1.51"/><path d="M30,239L74,258L106,162Z" fill="#d8f0ef" stroke="#d8f0ef" stroke-width="1.51"/><path d="M74,258L-30,355L115,384Z" fill="#d5efed" stroke="#d5efed" stroke-width="1.51"/><path d="M-45,1780L-16,1963L100,1798Z" fill="#7cae8b" stroke="#7cae8b" stroke-width="1.51"/><path d="M-30,1137L-20,1258L114,1151Z" fill="#99d3b9" stroke="#99d3b9" stroke-width="1.51"/><path d="M-30,355L-2,457L115,384Z" fill="#d3eeeb" stroke="#d3eeeb" stroke-width="1.51"/><path d="M-13,1699L-45,1780L100,1798Z" fill="#7fb390" stroke="#7fb390" stroke-width="1.51"/><path d="M-13,117L30,239L106,162Z" fill="#ddf2f2" stroke="#ddf2f2" stroke-width="1.51"/><path d="M-2,457L-56,605L97,518Z" fill="#c9ebe6" stroke="#c9ebe6" stroke-width="1.51"/><path d="M30,239L-30,355L74,258Z" fill="#d9f1f0" stroke="#d9f1f0" stroke-width="1.51"/><path d="M-45,1780L-109,1842L-16,1963Z" fill="#80ae8d" stroke="#80ae8d" stroke-width="1.51"/><path d="M-107,1668L-13,1699L3,1522Z" fill="#88bb98" stroke="#88bb98" stroke-width="1.51"/><path d="M-56,605L-103,656L9,770Z" fill="#c0e7e1" stroke="#c0e7e1" stroke-width="1.51"/><path d="M-13,117L-93,224L30,239Z" fill="#e1f4f5" stroke="#e1f4f5" stroke-width="1.51"/><path d="M-93,224L-30,355L30,239Z" fill="#ddf2f3" stroke="#ddf2f3" stroke-width="1.51"/><path d="M9,770L-107,938L38,937Z" fill="#aedfd2" stroke="#aedfd2" stroke-width="1.51"/><path d="M-107,938L-36,1001L38,937Z" fill="#a8dcce" stroke="#a8dcce" stroke-width="1.51"/><path d="M-132,756L-107,938L9,770Z" fill="#b6e2d7" stroke="#b6e2d7" stroke-width="1.51"/><path d="M-109,1842L-115,1953L-16,1963Z" fill="#7faa8b" stroke="#7faa8b" stroke-width="1.51"/><path d="M-164,482L-56,605L-2,457Z" fill="#cfede9" stroke="#cfede9" stroke-width="1.51"/><path d="M-54,1367L-149,1412L3,1522Z" fill="#92c8a6" stroke="#92c8a6" stroke-width="1.51"/><path d="M-171,1553L-107,1668L3,1522Z" fill="#8dbf9b" stroke="#8dbf9b" stroke-width="1.51"/><path d="M-103,656L-132,756L9,770Z" fill="#bde6dd" stroke="#bde6dd" stroke-width="1.51"/><path d="M-30,1137L-115,1267L-20,1258Z" fill="#9cd3b9" stroke="#9cd3b9" stroke-width="1.51"/><path d="M-30,355L-118,354L-2,457Z" fill="#d9f1ef" stroke="#d9f1ef" stroke-width="1.51"/><path d="M-149,1412L-171,1553L3,1522Z" fill="#91c5a1" stroke="#91c5a1" stroke-width="1.51"/><path d="M-93,224L-118,354L-30,355Z" fill="#def3f2" stroke="#def3f2" stroke-width="1.51"/><path d="M-36,1001L-157,1118L-30,1137Z" fill="#a4d8c4" stroke="#a4d8c4" stroke-width="1.51"/><path d="M-53,-110L-148,30L-26,31Z" fill="#ebf7fa" stroke="#ebf7fa" stroke-width="1.51"/><path d="M-115,1267L-54,1367L-20,1258Z" fill="#99d0b2" stroke="#99d0b2" stroke-width="1.51"/><path d="M-26,31L-125,66L-13,117Z" fill="#e7f5f9" stroke="#e7f5f9" stroke-width="1.51"/><path d="M-16,1963L-115,1953L-4,2029Z" fill="#7ba588" stroke="#7ba588" stroke-width="1.51"/><path d="M-118,354L-164,482L-2,457Z" fill="#d7f0ed" stroke="#d7f0ed" stroke-width="1.51"/><path d="M-115,1953L-163,2090L-4,2029Z" fill="#7ca287" stroke="#7ca287" stroke-width="1.51"/><path d="M-107,1668L-45,1780L-13,1699Z" fill="#85b794" stroke="#85b794" stroke-width="1.51"/><path d="M-125,66L-93,224L-13,117Z" fill="#e5f5f8" stroke="#e5f5f8" stroke-width="1.51"/><path d="M-157,1118L-115,1267L-30,1137Z" fill="#a1d6bd" stroke="#a1d6bd" stroke-width="1.51"/><path d="M-184,1011L-157,1118L-36,1001Z" fill="#a9dbc8" stroke="#a9dbc8" stroke-width="1.51"/><path d="M-148,30L-125,66L-26,31Z" fill="#eaf7fb" stroke="#eaf7fb" stroke-width="1.51"/><path d="M-107,938L-184,1011L-36,1001Z" fill="#abdccd" stroke="#abdccd" stroke-width="1.51"/><path d="M-163,-161L-148,30L-53,-110Z" fill="#eff9fb" stroke="#eff9fb" stroke-width="1.51"/><path d="M-107,1668L-109,1842L-45,1780Z" fill="#85b592" stroke="#85b592" stroke-width="1.51"/><path d="M-164,482L-103,656L-56,605Z" fill="#cbebe6" stroke="#cbebe6" stroke-width="1.51"/><path d="M-115,1267L-149,1412L-54,1367Z" fill="#98cdae" stroke="#98cdae" stroke-width="1.51"/><path d="M-132,756L-184,1011L-107,938Z" fill="#b3e0d3" stroke="#b3e0d3" stroke-width="1.51"/><path d="M-148,30L-118,354L-93,224Z" fill="#e5f5f6" stroke="#e5f5f6" stroke-width="1.51"/><path d="M-125,66L-148,30L-93,224Z" fill="#e9f7f9" stroke="#e9f7f9" stroke-width="1.51"/><path d="M-171,1553L-109,1842L-107,1668Z" fill="#8aba96" stroke="#8aba96" stroke-width="1.51"/><path d="M-164,482L-132,756L-103,656Z" fill="#c8eae4" stroke="#c8eae4" stroke-width="1.51"/><path d="M-148,30L-164,482L-118,354Z" fill="#e2f5f4" stroke="#e2f5f4" stroke-width="1.51"/><path d="M-163,2090L-115,1953L-109,1842Z" fill="#7fa88a" stroke="#7fa88a" stroke-width="1.51"/><path d="M-171,1553L-163,2090L-109,1842Z" fill="#85b390" stroke="#85b390" stroke-width="1.51"/><path d="M-157,1118L-149,1412L-115,1267Z" fill="#9ed3b6" stroke="#9ed3b6" stroke-width="1.51"/><path d="M-164,482L-184,1011L-132,756Z" fill="#c0e6dd" stroke="#c0e6dd" stroke-width="1.51"/><path d="M-157,1118L-184,1011L-149,1412Z" fill="#a3d7bd" stroke="#a3d7bd" stroke-width="1.51"/><path d="M-184,1011L-171,1553L-149,1412Z" fill="#9cd0b1" stroke="#9cd0b1" stroke-width="1.51"/><path d="M-163,-161L-164,482L-148,30Z" fill="#eaf7f9" stroke="#eaf7f9" stroke-width="1.51"/><path d="M-184,1011L-164,482L-163,-161Z" fill="#daf1ed" stroke="#daf1ed" stroke-width="1.51"/></svg>