<?xml version="1.0" encoding="iso-8859-1"?>
<!-- Generator: Adobe Illustrator 19.1.0, SVG Export Plug-In . SVG Version: 6.00 Build 0)  -->
<svg xmlns="http://www.w3.org/2000/svg" xmlns:xlink="http://www.w3.org/1999/xlink" version="1.1" id="Capa_1" x="0px" y="0px" width="150px" height="150px" viewBox="0 0 38.519 38.519" style="enable-background:new 0 0 38.519 38.519;" xml:space="preserve">
<g id="Play_1_">
	<path d="M19.259,38.519C8.64,38.519,0,29.879,0,19.26C0,8.64,8.64,0,19.259,0c10.62,0,19.26,8.64,19.26,19.26   C38.519,29.879,29.879,38.519,19.259,38.519z M19.259,0.801c-10.178,0-18.458,8.28-18.458,18.459   c0,10.178,8.28,18.458,18.458,18.458c10.179,0,18.459-8.28,18.459-18.458C37.718,9.081,29.438,0.801,19.259,0.801z" fill="#006DF0"/>
	<path d="M14.66,28.79c-0.135,0-0.271-0.034-0.393-0.102c-0.262-0.143-0.425-0.418-0.425-0.716V10.546   c0-0.298,0.163-0.572,0.425-0.716c0.262-0.145,0.582-0.132,0.831,0.027l13.692,8.72c0.236,0.15,0.378,0.408,0.378,0.688   s-0.142,0.538-0.377,0.688l-13.693,8.708C14.965,28.747,14.812,28.79,14.66,28.79z M14.669,10.531l-0.025,0.015v17.427   l13.718-8.693L14.669,10.531z" fill="#006DF0"/>
</g>
<g>
</g>
<g>
</g>
<g>
</g>
<g>
</g>
<g>
</g>
<g>
</g>
<g>
</g>
<g>
</g>
<g>
</g>
<g>
</g>
<g>
</g>
<g>
</g>
<g>
</g>
<g>
</g>
<g>
</g>
</svg>
