<?xml version='1.0' encoding='iso-8859-1'?>
<svg version="1.1" xmlns="http://www.w3.org/2000/svg" width="40px" height="40px" viewBox="0 0 470 470" xmlns:xlink="http://www.w3.org/1999/xlink" enable-background="new 0 0 470 470">
  <path d="m441.287,1.517c-1.876-1.418-4.31-1.874-6.568-1.232l-237.794,67.426c-3.227,0.915-5.454,3.861-5.454,7.215v293.791c-3.571-3.865-7.741-7.481-12.488-10.784-16.897-11.754-39.229-18.228-62.88-18.228s-45.982,6.473-62.879,18.228c-17.727,12.331-27.488,28.994-27.488,46.919s9.762,34.588 27.488,46.919c16.896,11.755 39.227,18.229 62.879,18.229s45.982-6.474 62.88-18.228c17.726-12.332 27.488-28.994 27.488-46.919v-204.068l202.34-57.373c3.985-1.13 6.3-5.276 5.17-9.261-1.131-3.985-5.274-6.3-9.262-5.169l-198.248,56.213v-24.409l202.34-57.373c3.985-1.13 6.3-5.276 5.17-9.261-1.131-3.984-5.274-6.301-9.262-5.169l-198.248,56.213v-64.601l222.794-63.173v280.265c-3.57-3.865-7.741-7.481-12.488-10.784-16.896-11.754-39.228-18.228-62.879-18.228s-45.982,6.474-62.88,18.228c-17.726,12.332-27.488,28.995-27.488,46.92s9.763,34.588 27.488,46.919c16.897,11.754 39.229,18.228 62.88,18.228s45.982-6.473 62.879-18.228c17.727-12.332 27.488-28.994 27.488-46.919v-326.323c-1.13687e-13-2.35-1.103-4.565-2.978-5.983zm-270.871,437.942c-14.406,10.022-33.695,15.541-54.313,15.541s-39.906-5.52-54.313-15.541c-13.576-9.445-21.054-21.735-21.054-34.606s7.478-25.161 21.054-34.606c14.406-10.022 33.695-15.541 54.313-15.541s39.907,5.519 54.313,15.541c13.577,9.445 21.055,21.735 21.055,34.606 0,12.871-7.478,25.161-21.055,34.606zm237.795-71.029c-14.407,10.021-33.695,15.541-54.313,15.541s-39.907-5.52-54.313-15.542c-13.577-9.445-21.055-21.734-21.055-34.605s7.478-25.161 21.055-34.606c14.406-10.022 33.695-15.542 54.313-15.542s39.906,5.52 54.313,15.542c13.576,9.445 21.054,21.735 21.054,34.606s-7.478,25.16-21.054,34.606z"/>
</svg>
